<svg viewBox="0 0 500 240" xmlns="http://www.w3.org/2000/svg">
  <defs>
    <linearGradient id="sunGrad" x1="0" y1="0" x2="0" y2="1">
      <stop offset="0%" stop-color="#FFE38A"/>
      <stop offset="55%" stop-color="#FF6FCF"/>
      <stop offset="100%" stop-color="#9D6CFF"/>
    </linearGradient>
    <linearGradient id="chromeText" x1="0" y1="0" x2="1" y2="0">
      <stop offset="0%" stop-color="#4FE9E0"/>
      <stop offset="40%" stop-color="#F4EEFF"/>
      <stop offset="75%" stop-color="#FF6FCF"/>
      <stop offset="100%" stop-color="#9D6CFF"/>
    </linearGradient>
    <clipPath id="sunClip"><circle cx="250" cy="80" r="52"/></clipPath>
  </defs>

  <rect width="500" height="240" fill="#1A1042"/>

  <circle cx="250" cy="80" r="52" fill="url(#sunGrad)"/>
  <g clip-path="url(#sunClip)" stroke="#1A1042" stroke-width="6">
    <line x1="190" y1="90" x2="310" y2="90"/>
    <line x1="190" y1="100" x2="310" y2="100"/>
    <line x1="190" y1="112" x2="310" y2="112"/>
    <line x1="190" y1="126" x2="310" y2="126"/>
  </g>

  <line x1="60" y1="140" x2="440" y2="140" stroke="#4FE9E0" stroke-width="2"/>
  <g stroke="#FF6FCF" stroke-width="1.4" opacity="0.7">
    <line x1="250" y1="140" x2="90" y2="185"/>
    <line x1="250" y1="140" x2="170" y2="185"/>
    <line x1="250" y1="140" x2="250" y2="185"/>
    <line x1="250" y1="140" x2="330" y2="185"/>
    <line x1="250" y1="140" x2="410" y2="185"/>
  </g>

  <text x="250" y="205" text-anchor="middle" font-family="'Space Grotesk', sans-serif" font-weight="700" font-size="26" fill="url(#chromeText)" letter-spacing="1">LAUREN JEWEL</text>
  <text x="250" y="228" text-anchor="middle" font-family="'IBM Plex Mono', monospace" font-weight="500" font-size="12" fill="#C4B7E8" letter-spacing="3">PERFORMANCE HORSES</text>
</svg>
